<?xml version="1.0" standalone="no"?>
<!DOCTYPE svg PUBLIC "-//W3C//DTD SVG 20010904//EN"
 "http://www.w3.org/TR/2001/REC-SVG-20010904/DTD/svg10.dtd">
<svg version="1.0" xmlns="http://www.w3.org/2000/svg"
 width="1024.000000pt" height="1024.000000pt" viewBox="0 0 1024.000000 1024.000000"
 preserveAspectRatio="xMidYMid meet">

<g transform="translate(0.000000,1024.000000) scale(0.100000,-0.100000)"
fill="#000000" stroke="none">
<path d="M0 5120 l0 -5120 5120 0 5120 0 0 5120 0 5120 -5120 0 -5120 0 0
-5120z m5347 2924 c-3 -3 -12 -4 -19 -1 -8 3 -5 6 6 6 11 1 17 -2 13 -5z m53
-14 c18 -12 2 -12 -25 0 -13 6 -15 9 -5 9 8 0 22 -4 30 -9z m51 -37 c13 -16
12 -17 -3 -4 -10 7 -18 15 -18 17 0 8 8 3 21 -13z m69 -82 c22 -45 36 -116 24
-124 -5 -3 -10 16 -12 41 -1 25 -11 61 -22 80 -21 34 -23 42 -15 42 2 0 14
-18 25 -39z m37 -218 c-2 -16 -4 -5 -4 22 0 28 2 40 4 28 2 -13 2 -35 0 -50z
m3 -43 c0 -5 -4 -10 -10 -10 -5 0 -10 5 -10 10 0 6 5 10 10 10 6 0 10 -4 10
-10z m-19 -76 c-12 -48 -49 -129 -56 -122 -4 4 12 52 32 98 7 14 14 38 18 54
3 15 9 26 12 23 3 -4 0 -27 -6 -53z m-1048 9 c-7 -2 -19 -2 -25 0 -7 3 -2 5
12 5 14 0 19 -2 13 -5z m-53 -7 c0 -2 -8 -10 -17 -17 -16 -13 -17 -12 -4 4 13
16 21 21 21 13z m105 -17 c11 -16 1 -19 -13 -3 -7 8 -8 14 -3 14 5 0 13 -5 16
-11z m12 -51 c-3 -8 -6 -5 -6 6 -1 11 2 17 5 13 3 -3 4 -12 1 -19z m0 -170
c-2 -29 -3 -6 -3 52 0 58 1 81 3 53 2 -29 2 -77 0 -105z m1097 73 c-15 -23
-28 -41 -31 -41 -6 0 18 43 36 64 9 10 15 20 14 22 -2 2 -2 10 -2 17 1 6 3 4
6 -5 2 -9 -8 -35 -23 -57z m-1312 -28 c-2 -38 -7 -71 -10 -75 -7 -7 -4 108 3
130 8 24 10 11 7 -55z m1129 40 c-13 -24 -65 -82 -55 -63 10 20 55 80 61 80 2
0 -1 -8 -6 -17z m127 -107 c-13 -20 -26 -36 -30 -36 -4 0 5 18 20 39 34 48 42
46 10 -3z m-208 20 c0 -2 -8 -10 -17 -17 -16 -13 -17 -12 -4 4 13 16 21 21 21
13z m-480 -36 c8 -5 11 -10 5 -10 -5 0 -17 5 -25 10 -8 5 -10 10 -5 10 6 0 17
-5 25 -10z m-583 -47 c-3 -10 -5 -4 -5 12 0 17 2 24 5 18 2 -7 2 -21 0 -30z
m658 27 l20 -9 -20 0 c-11 0 -27 4 -35 9 -13 9 -13 10 0 9 8 0 24 -4 35 -9z
m-418 -182 c-2 -35 -3 -7 -3 62 0 69 1 97 3 63 2 -35 2 -91 0 -125z m491 165
c-10 -2 -26 -2 -35 0 -10 3 -2 5 17 5 19 0 27 -2 18 -5z m177 -3 c-16 -4 -59
-7 -95 -7 l-65 0 65 7 c36 4 79 7 95 7 l30 1 -30 -8z m282 -48 c-14 -15 -41
-35 -59 -45 l-33 -18 30 23 c16 13 41 33 55 45 35 31 39 28 7 -5z m-753 -87
c7 -72 0 -62 -12 18 -5 32 -6 55 -2 50 4 -4 10 -35 14 -68z m953 -22 c-3 -10
-5 -2 -5 17 0 19 2 27 5 18 2 -10 2 -26 0 -35z m-664 -20 c-7 -2 -21 -2 -30 0
-10 3 -4 5 12 5 17 0 24 -2 18 -5z m23 -71 c-3 -5 7 -7 22 -5 16 2 35 -4 47
-14 37 -33 75 -84 75 -101 -1 -9 -10 0 -21 21 -45 85 -131 99 -200 31 -53 -51
-64 -83 -50 -138 15 -62 14 -103 -4 -110 -8 -3 -15 0 -15 6 0 6 -8 17 -17 24
-14 9 -18 27 -19 75 0 34 2 57 4 51 8 -24 22 -11 16 13 -4 18 -3 25 6 23 7 -2
20 12 29 29 9 18 24 35 34 39 9 3 17 9 17 13 0 5 14 14 30 21 17 7 30 16 30
21 0 5 5 9 11 9 5 0 8 -4 5 -8z m-1862 -26 c73 -31 104 -112 67 -181 -26 -50
-51 -66 -102 -67 -48 0 -105 39 -125 88 -12 30 -12 39 1 71 25 59 70 100 113
102 7 1 27 -5 46 -13z m293 -21 c23 -19 44 -35 47 -35 3 0 22 11 42 25 45 31
73 32 108 4 l27 -21 24 26 c22 24 75 37 75 18 0 -4 -16 -31 -35 -59 l-35 -52
35 -53 c35 -52 43 -78 26 -78 -23 0 -42 15 -63 48 l-22 35 -37 -42 c-41 -46
-53 -46 -93 -2 -25 28 -32 27 -82 -14 -43 -35 -77 -44 -90 -24 -3 6 17 34 45
63 28 28 51 57 51 63 0 7 -23 35 -51 63 -47 47 -55 70 -25 70 7 0 31 -16 53
-35z m2671 19 c45 -31 23 -54 -53 -54 -50 0 -68 -17 -68 -62 0 -38 33 -68 74
-68 32 0 38 16 12 35 -25 18 -9 45 26 45 38 0 64 -25 55 -54 -11 -37 -33 -65
-65 -81 -40 -21 -87 -6 -135 41 -58 59 -44 136 35 190 41 28 87 31 119 8z
m220 -81 l3 -93 43 0 c37 0 45 -4 50 -22 12 -47 10 -48 -75 -48 l-82 0 7 46
c3 26 6 85 6 131 0 82 1 84 23 81 21 -3 22 -8 25 -95z m382 61 c45 -40 66 -97
51 -136 -5 -12 -24 -38 -41 -55 -26 -26 -40 -33 -73 -33 -71 0 -137 69 -137
142 0 26 9 42 38 70 64 61 104 64 162 12z m215 -39 c16 -41 32 -75 35 -75 3 0
17 30 32 68 24 61 29 67 57 70 17 2 31 2 31 0 0 -2 -18 -53 -41 -114 -22 -60
-43 -117 -46 -126 -7 -25 -30 -22 -47 5 -14 20 -106 222 -106 231 0 5 26 13
46 15 6 0 24 -33 39 -74z m435 40 l0 -35 -61 0 c-57 0 -60 -1 -57 -22 3 -21 8
-23 47 -20 29 3 47 -1 52 -10 19 -30 9 -38 -46 -38 -48 0 -55 -2 -55 -20 0
-18 7 -20 55 -20 54 0 55 0 55 -29 l0 -29 -77 -4 c-43 -2 -80 0 -83 3 -3 4 -4
61 -2 128 l3 120 62 4 c34 2 72 4 85 5 19 2 22 -3 22 -33z m255 21 c23 -10 35
-22 35 -34 0 -26 -22 -34 -71 -26 -32 5 -39 4 -39 -9 0 -10 14 -20 38 -26 85
-23 109 -77 55 -127 -47 -44 -84 -44 -138 0 -24 20 -28 27 -17 37 9 10 19 11
46 1 37 -14 61 -8 70 14 6 15 1 18 -47 29 -32 7 -77 47 -77 68 0 20 39 67 64
77 30 12 42 12 81 -4z m-4781 -17 c27 -22 35 -66 15 -86 -8 -8 -5 -19 12 -42
l23 -31 -20 -28 c-31 -42 -79 -60 -148 -54 l-58 4 6 30 c3 17 6 75 6 129 l0
99 69 0 c54 0 74 -4 95 -21z m1724 -64 c-3 -3 -9 2 -12 12 -6 14 -5 15 5 6 7
-7 10 -15 7 -18z m304 3 c-7 -7 -12 -8 -12 -2 0 14 12 26 19 19 2 -3 -1 -11
-7 -17z m-294 -54 c-3 -14 -5 -12 -10 9 -3 19 -2 25 4 19 6 -6 8 -18 6 -28z
m239 -76 c-3 -8 -6 -5 -6 6 -1 11 2 17 5 13 3 -3 4 -12 1 -19z m741 2 c-7 -10
-14 -17 -17 -15 -4 4 18 35 25 35 2 0 -1 -9 -8 -20z m-1048 -65 c8 -11 -5 -2
-28 20 -23 22 -42 44 -42 49 0 9 48 -38 70 -69z m303 -42 c-7 -2 -19 -2 -25 0
-7 3 -2 5 12 5 14 0 19 -2 13 -5z m630 0 c-23 -2 -64 -2 -90 0 -26 2 -7 3 42
3 50 0 71 -1 48 -3z m0 -160 c-13 -2 -35 -2 -50 0 -16 2 -5 4 22 4 28 0 40 -2
28 -4z m-906 -120 c-3 -10 -5 -4 -5 12 0 17 2 24 5 18 2 -7 2 -21 0 -30z
m3993 -400 c45 -40 54 -91 26 -146 -17 -34 -29 -45 -63 -55 -38 -12 -46 -11
-87 7 -49 21 -66 48 -66 102 0 101 117 157 190 92z m-6487 -61 c-5 -21 17 -79
137 -362 31 -73 51 -121 144 -344 25 -60 49 -113 54 -118 4 -4 19 23 31 62 13
39 27 73 31 75 5 3 21 42 36 88 15 45 36 100 47 122 11 22 30 71 43 109 13 38
30 79 38 90 27 43 96 229 96 262 l0 34 214 0 c117 0 241 3 275 6 77 9 81 -7
13 -57 -28 -21 -59 -57 -75 -88 l-29 -52 1 -590 c1 -560 2 -591 20 -627 11
-20 34 -52 51 -69 38 -38 37 -39 -76 -48 -45 -3 -154 -21 -243 -39 -88 -18
-161 -29 -161 -25 0 4 15 31 33 60 l32 52 3 391 c1 260 -1 386 -8 376 -5 -8
-10 -21 -10 -28 0 -7 -16 -50 -35 -95 -125 -297 -194 -475 -247 -635 -60 -184
-78 -216 -102 -176 -6 10 -30 71 -53 134 -74 200 -114 301 -183 460 -38 85
-81 188 -96 229 l-29 75 -6 -125 c-6 -117 -13 -654 -10 -748 1 -38 7 -49 41
-81 l41 -38 -47 -7 c-68 -10 -293 -89 -384 -135 -44 -22 -80 -36 -80 -31 0 6
13 29 28 53 61 92 64 109 74 418 5 157 7 499 6 760 l-3 475 -33 67 c-21 43
-47 78 -74 100 l-42 33 264 5 c146 3 268 4 272 2 3 -1 4 -10 1 -20z m1997 18
c0 -3 -23 -28 -51 -55 -95 -93 -89 -48 -89 -675 0 -386 3 -558 11 -573 6 -12
29 -41 51 -64 22 -22 37 -46 34 -52 -4 -6 -37 -11 -74 -11 -37 0 -159 -11
-272 -24 -113 -13 -209 -22 -213 -19 -4 3 12 26 36 52 83 89 81 66 75 701 l-6
560 -25 42 c-14 24 -41 59 -61 77 -20 19 -36 37 -36 40 0 4 140 6 310 6 171 0
310 -2 310 -5z m720 -4 c0 -6 -19 -32 -42 -60 l-43 -50 -3 -427 -3 -427 26
-31 c33 -39 105 -61 196 -61 109 0 168 17 212 60 l37 38 0 416 c0 288 -3 424
-11 439 -6 12 -30 41 -52 65 -24 24 -35 42 -27 42 8 -1 135 1 283 3 163 3 267
1 267 -5 0 -5 -14 -21 -30 -35 -17 -14 -43 -46 -58 -72 l-27 -46 -5 -460 -5
-460 -25 -50 c-31 -62 -111 -142 -176 -177 -27 -15 -85 -37 -129 -50 -70 -20
-100 -23 -240 -21 -183 2 -274 17 -378 65 -78 36 -121 81 -164 174 l-28 59 -5
471 -5 470 -27 42 c-15 23 -41 51 -58 63 -16 13 -30 25 -30 28 0 3 124 6 275
6 164 0 275 -4 275 -9z m1969 -8 c55 -14 177 -95 213 -141 66 -85 72 -108 79
-297 7 -199 2 -245 -40 -329 -33 -65 -83 -112 -148 -138 -51 -21 -53 -7 34
-203 84 -188 111 -234 172 -295 55 -54 63 -75 29 -75 -13 0 -126 14 -251 32
-220 31 -228 33 -221 52 17 50 6 94 -63 248 -106 235 -91 218 -199 222 l-92 4
-4 -101 c-2 -56 -2 -139 0 -185 4 -79 6 -84 43 -126 68 -77 102 -73 -368 -50
-73 4 -133 9 -133 12 0 3 21 27 46 54 77 83 74 54 74 641 l0 523 -29 46 c-16
25 -51 61 -78 79 l-48 34 430 5 c461 5 487 5 554 -12z m1481 14 c0 -5 -11 -19
-25 -32 -19 -18 -25 -34 -25 -66 0 -39 52 -277 144 -654 44 -182 119 -541 152
-725 39 -225 72 -328 138 -427 16 -24 16 -29 3 -34 -14 -5 -49 7 -257 88 -41
16 -109 37 -149 47 -92 22 -106 39 -68 79 17 18 27 39 27 58 0 26 -37 226 -43
229 -16 10 -345 87 -391 92 l-62 6 -17 -62 c-24 -86 -22 -123 8 -151 38 -35
33 -53 -12 -48 -88 10 -419 71 -427 79 -5 4 7 22 26 41 40 38 107 199 140 337
10 46 28 107 39 135 11 27 29 86 40 131 10 44 32 118 49 165 16 47 30 92 30
101 0 9 16 64 35 122 19 58 35 113 35 121 0 9 13 57 29 108 35 108 32 126 -43
204 -25 26 -46 49 -46 51 0 1 123 4 273 6 149 1 300 3 335 5 34 1 62 -2 62 -6z
m-2705 -1821 c60 -27 70 -43 50 -81 -15 -29 -20 -31 -48 -26 -100 19 -115 19
-147 -4 -18 -13 -39 -38 -47 -57 -13 -32 -12 -38 7 -78 35 -73 127 -99 175
-50 30 29 32 45 5 38 -29 -8 -72 23 -68 50 3 20 9 22 73 23 39 0 81 4 94 8 20
7 23 6 17 -10 -4 -9 -9 -44 -13 -76 -7 -70 -27 -98 -86 -127 -85 -41 -180 -19
-256 59 -65 67 -76 151 -31 225 40 65 139 123 210 124 14 0 43 -8 65 -18z
m-2181 -38 c13 -27 33 -56 44 -66 20 -18 21 -18 45 25 14 24 28 53 31 64 6 19
13 22 66 20 33 0 60 -3 60 -4 0 -2 -9 -16 -20 -30 -62 -81 -101 -139 -106
-159 -6 -21 37 -89 108 -171 15 -18 28 -37 28 -42 0 -6 -26 -10 -57 -10 -58 1
-58 1 -85 44 -43 72 -57 74 -106 10 -24 -31 -50 -54 -61 -54 -10 0 -33 -3 -50
-6 -41 -9 -41 11 0 62 17 22 49 65 70 96 l40 58 -49 62 c-49 63 -82 118 -82
138 0 5 22 10 50 10 49 0 50 0 74 -47z m1476 28 c42 -22 49 -49 18 -78 -21
-19 -27 -21 -64 -11 -79 21 -174 -38 -174 -108 0 -27 34 -70 70 -89 39 -20
114 -19 134 1 24 23 20 31 -20 37 -43 7 -64 23 -64 48 0 27 16 32 113 35 l89
2 -5 -32 c-3 -17 -9 -50 -12 -73 -12 -80 -125 -154 -213 -139 -48 7 -125 60
-158 108 -26 37 -29 50 -29 117 0 57 5 83 19 103 19 30 71 66 121 85 48 18
135 16 175 -6z m1012 9 c18 0 19 -6 12 -129 -4 -71 -4 -140 0 -155 6 -24 9
-25 94 -28 l87 -3 3 -48 3 -48 -138 3 -138 3 -3 209 -2 209 31 -7 c17 -3 40
-6 51 -6z m596 -9 c72 -37 119 -103 128 -181 5 -48 2 -62 -23 -109 -54 -103
-157 -145 -259 -106 -82 31 -133 92 -149 178 -18 97 113 236 223 237 23 0 59
-9 80 -19z m356 -93 c42 -120 64 -164 77 -151 8 8 47 114 76 206 l15 47 59 0
60 0 -30 -57 c-33 -63 -99 -213 -134 -305 -21 -56 -23 -58 -58 -58 l-36 0 -40
98 c-23 53 -61 146 -87 206 -25 59 -46 111 -46 115 0 3 24 7 53 9 l52 2 39
-112z m-3816 86 c147 -61 179 -264 56 -361 -47 -37 -69 -44 -132 -45 -59 0
-94 17 -143 69 -50 52 -60 76 -62 136 -2 144 153 255 281 201z m871 -306 l1
-88 -44 0 -43 0 -7 53 c-3 28 -6 118 -6 199 l0 147 43 3 42 3 6 -115 c4 -63 7
-154 8 -202z m257 308 c11 -8 49 -51 84 -95 35 -45 67 -81 71 -81 7 0 2 131
-6 173 -3 14 5 17 50 17 l53 0 7 -194 c4 -107 4 -199 0 -205 -7 -12 -64 -15
-81 -3 -5 4 -23 25 -39 47 -42 58 -126 155 -133 155 -4 0 -6 -47 -4 -105 l3
-105 -48 0 -48 0 0 205 0 205 35 0 c20 0 45 -6 56 -14z m3377 -16 c-8 -72 -4
-70 -114 -70 l-100 0 3 -32 3 -33 83 -3 83 -3 -3 -37 c-3 -36 -5 -37 -43 -40
-105 -6 -125 -12 -125 -36 0 -29 29 -36 136 -36 l74 0 0 -52 0 -51 -97 6 c-54
4 -122 7 -150 7 l-53 0 0 203 0 202 153 0 152 0 -2 -25z m366 0 c60 -30 68
-46 41 -75 -33 -36 -56 -40 -86 -16 -31 24 -67 27 -84 6 -25 -31 -8 -49 65
-65 87 -20 111 -33 130 -70 32 -61 5 -129 -66 -165 -40 -21 -118 -19 -171 5
-64 28 -73 41 -53 79 18 35 25 37 66 15 17 -8 48 -14 72 -12 37 3 42 6 42 28
0 17 -6 26 -20 28 -53 8 -123 36 -147 60 -58 54 -26 147 67 197 36 19 89 14
144 -15z m-5345 -9 c62 -41 84 -112 46 -146 -28 -25 -25 -48 10 -73 17 -13 30
-32 30 -43 0 -30 -25 -73 -60 -103 -30 -25 -36 -26 -158 -26 l-127 0 0 205 0
205 115 0 c96 0 120 -3 144 -19z m2931 -936 c0 -94 -4 -128 -17 -155 -10 -20
-15 -24 -10 -10 4 14 7 44 7 67 0 23 3 37 7 30 16 -25 1 179 -16 228 -4 11 1
7 11 -10 15 -24 18 -52 18 -150z m-789 58 c-3 -21 -5 -51 -6 -67 0 -22 -3 -27
-11 -19 -8 8 -7 26 2 67 14 64 23 75 15 19z m-998 -28 c-3 -3 -49 -6 -103 -6
-61 0 -102 -5 -109 -12 -22 -23 -8 -56 16 -41 22 14 38 13 38 -1 0 -10 17 -15
58 -18 36 -2 19 -4 -45 -5 l-103 -2 0 45 0 45 127 0 c69 0 124 -2 121 -5z
m569 -3 c10 -6 10 -16 1 -45 l-11 -37 -59 0 c-32 0 -58 4 -58 9 0 14 18 23 22
11 1 -5 14 -7 27 -3 24 6 24 6 3 14 -12 5 -22 15 -22 23 0 22 -26 26 -195 29
-122 2 -110 3 65 5 118 1 220 -2 227 -6z m1756 2 c12 -12 -5 -32 -24 -29 -25
5 -26 -32 -1 -38 16 -4 16 -4 -1 -12 -24 -10 -34 1 -42 48 -7 37 -7 37 27 37
19 0 37 -3 41 -6z m65 -1 c-10 -2 -26 -2 -35 0 -10 3 -2 5 17 5 19 0 27 -2 18
-5z m200 0 c-16 -2 -40 -2 -55 0 -16 2 -3 4 27 4 30 0 43 -2 28 -4z m522 -38
l0 -45 -217 2 c-120 1 -189 3 -153 5 45 3 60 7 50 14 -13 8 -13 10 0 18 18 12
8 23 -33 37 -26 9 6 11 161 13 l192 2 0 -46z m-723 -31 c-3 -3 -12 -4 -19 -1
-8 3 -5 6 6 6 11 1 17 -2 13 -5z m-447 -114 c0 -5 -4 -10 -8 -10 -17 0 -28
-59 -26 -145 3 -177 3 -187 15 -179 7 4 6 -5 -3 -22 -8 -16 -22 -44 -31 -62
-10 -19 -14 -38 -11 -43 3 -5 0 -8 -8 -7 -7 2 -12 -2 -11 -9 2 -6 -6 -15 -17
-18 -21 -7 -27 -30 -10 -40 13 -8 42 14 35 25 -3 5 0 12 6 16 9 5 10 -9 4 -52
l-7 -59 23 20 c12 11 19 14 15 8 -4 -7 -3 -20 1 -28 8 -13 11 -13 32 1 13 9
20 22 17 31 -3 8 -2 12 3 8 18 -10 41 58 42 123 1 36 5 59 9 52 5 -9 9 -8 13
4 3 8 1 17 -6 20 -7 2 -5 5 4 5 24 1 29 22 36 143 6 102 5 107 -13 104 -14 -3
-19 2 -21 22 -1 26 -1 26 14 7 8 -11 13 -13 9 -5 -3 8 -9 23 -12 33 -4 9 -11
17 -16 17 -5 0 -6 -4 -3 -10 3 -5 1 -18 -5 -27 -10 -16 -10 -16 -6 2 6 23 -10
48 -38 58 -10 4 -16 11 -12 14 11 11 72 -26 96 -59 22 -29 22 -37 18 -197 -4
-152 -6 -171 -30 -222 -25 -55 -159 -209 -181 -209 -5 0 -2 9 8 20 10 11 13
20 8 20 -12 0 -27 -29 -24 -46 2 -15 -66 -47 -80 -38 -8 5 -10 33 -6 90 6 88
13 104 77 183 l35 44 6 181 c5 172 9 204 32 234 11 14 27 16 27 2z m-1064 -62
c22 -68 46 -116 78 -152 14 -16 26 -33 26 -38 0 -4 6 -8 13 -8 6 0 23 -9 37
-20 22 -17 23 -20 6 -20 -19 0 -106 84 -106 102 0 5 -8 2 -17 -8 -15 -15 -18
-40 -20 -160 -2 -118 0 -151 17 -198 10 -31 16 -54 11 -52 -22 14 -40 126 -50
321 -7 116 -14 227 -17 248 -8 52 1 46 22 -15z m-336 -19 l0 -49 -37 0 c-21 0
-197 -3 -390 -6 l-353 -6 0 33 c0 65 -8 64 292 69 150 3 321 5 381 6 l107 1 0
-48z m2534 31 c4 -4 5 -27 1 -49 l-7 -41 -368 0 -368 0 -6 23 c-3 12 -6 37 -6
56 l0 34 373 -8 c204 -4 376 -11 381 -15z m-1334 -9 c-5 -11 -15 -23 -21 -27
-6 -3 -3 5 6 20 20 30 30 35 15 7z m-30 -45 c0 -2 -8 -10 -17 -17 -16 -13 -17
-12 -4 4 13 16 21 21 21 13z m-155 -116 c-27 -12 -43 -12 -25 0 8 5 22 9 30 9
10 0 8 -3 -5 -9z m-62 -17 c-7 -2 -19 -2 -25 0 -7 3 -2 5 12 5 14 0 19 -2 13
-5z m-941 -57 c4 -6 8 -25 8 -43 l0 -32 -356 0 c-196 -1 -367 -4 -381 -7 -25
-7 -25 -6 -18 37 4 24 9 47 12 51 7 12 727 6 735 -6z m2249 4 l197 0 7 -36 c3
-20 4 -39 1 -42 -3 -3 -161 -6 -351 -6 -382 -1 -353 -7 -338 64 l6 33 141 -6
c78 -4 229 -7 337 -7z m-1138 -50 c-71 -43 -114 -60 -167 -66 -31 -4 -56 -10
-56 -14 0 -4 -19 -11 -42 -15 -39 -6 -41 -8 -20 -16 13 -5 28 -7 32 -4 5 3 10
2 12 -2 5 -12 66 -53 78 -53 7 0 9 -8 5 -20 -3 -11 -3 -20 2 -20 5 0 9 -10 10
-22 2 -22 1 -22 -13 -4 -8 11 -14 25 -14 32 0 17 -58 60 -93 68 -35 8 -78 -14
-113 -59 -25 -33 -26 -37 -14 -87 6 -29 13 -63 16 -75 6 -29 -27 -47 -72 -38
-28 5 -33 10 -32 30 1 14 5 25 8 25 3 0 18 26 34 58 61 125 71 142 83 146 11
5 11 13 1 56 -1 8 -9 17 -17 21 -7 3 29 3 81 1 107 -5 198 14 263 53 22 13 45
24 50 25 6 0 -4 -9 -22 -20z m-7 -232 c-3 -29 -6 -72 -6 -95 0 -32 -4 -43 -16
-43 -8 0 -13 4 -10 9 7 10 -20 9 -30 -1 -3 -4 -12 -4 -20 -1 -8 3 -14 -1 -14
-9 0 -12 -38 -38 -55 -38 -9 0 -4 125 5 140 8 12 10 13 10 1 0 -8 7 -23 17
-33 18 -20 42 -25 25 -5 -7 8 -7 18 -2 27 5 8 5 21 -1 32 -12 22 -6 23 15 2
18 -18 38 -10 29 11 -3 9 1 15 10 15 9 0 19 9 22 20 3 11 11 20 17 20 7 0 9
-18 4 -52z m282 1 c-3 -8 -7 -3 -11 10 -4 17 -3 21 5 13 5 -5 8 -16 6 -23z
m-113 -356 c-9 -59 -11 -64 -32 -56 -15 6 -14 7 3 14 10 4 13 8 7 8 -7 1 -13
6 -13 12 0 5 5 7 10 4 6 -3 10 -2 10 4 0 5 -5 13 -10 16 -6 4 -8 11 -5 16 4 5
-3 9 -14 9 -11 0 -23 5 -26 10 -4 6 10 10 36 10 l41 0 -7 -47z m-842 -25 c2
-27 1 -48 -4 -48 -5 0 -9 26 -8 58 1 64 5 60 12 -10z m837 -192 c6 -8 10 -25
8 -38 -2 -19 -10 -23 -43 -26 -47 -3 -150 10 -144 19 2 3 -2 13 -9 22 -24 28
-4 37 87 37 65 0 92 -4 101 -14z m-720 -3 c-14 -3 -29 -11 -33 -19 -4 -8 -16
-14 -25 -14 -15 -1 -15 -2 2 -15 23 -17 14 -20 -15 -5 -15 9 -19 7 -20 -7 0
-11 -3 -13 -6 -5 -4 9 -8 10 -18 2 -18 -15 -30 22 -15 50 9 17 20 20 83 19 40
-1 61 -4 47 -6z"/>
<path d="M3122 6908 c-34 -34 15 -116 61 -102 53 16 70 52 41 92 -17 25 -81
31 -102 10z"/>
<path d="M3621 6903 l-22 -57 28 -22 27 -21 33 41 c39 48 40 55 12 90 -33 42
-53 34 -78 -31z"/>
<path d="M6646 6904 c-20 -19 -20 -24 1 -54 37 -54 74 -64 111 -30 27 25 28
61 4 83 -24 22 -95 22 -116 1z"/>
<path d="M2807 6933 c-11 -3 -16 -10 -13 -20 3 -8 6 -17 6 -19 0 -12 49 -2 54
12 11 30 -4 38 -47 27z"/>
<path d="M2818 6843 c-29 -5 -45 -31 -24 -39 8 -3 27 -4 43 -2 20 2 29 9 31
26 3 22 2 23 -50 15z"/>
<path d="M8504 5994 c-7 -3 -9 -17 -5 -37 5 -22 14 -33 31 -37 14 -3 26 -14
26 -23 2 -13 1 -13 -3 -2 -2 8 -9 15 -14 15 -12 0 -12 -27 1 -35 17 -10 11
-25 -10 -25 -11 0 -19 3 -18 8 1 4 -6 33 -15 64 -16 52 -19 57 -36 46 -32 -19
-39 -42 -31 -88 10 -56 32 -73 88 -67 80 9 113 68 77 137 -21 41 -57 58 -91
44z m55 -40 c14 -18 21 -40 20 -68 l-1 -41 -9 44 c-5 24 -18 55 -30 68 -13 12
-18 23 -11 23 6 0 20 -12 31 -26z m-89 -45 c0 -11 4 -18 9 -15 5 3 11 -8 13
-25 4 -23 1 -29 -11 -27 -19 4 -45 54 -37 74 8 21 26 17 26 -7z"/>
<path d="M6290 5490 c0 -80 4 -151 9 -158 9 -15 332 -39 375 -28 12 3 35 17
49 30 25 23 27 31 27 111 0 96 -13 131 -58 164 -25 18 -47 20 -215 23 l-187 3
0 -145z"/>
<path d="M7931 5363 c-18 -65 -49 -169 -67 -232 -45 -149 -54 -190 -43 -197
12 -7 228 -44 261 -44 l27 0 -16 53 c-8 28 -39 159 -69 291 -29 131 -55 240
-57 242 -2 2 -18 -49 -36 -113z"/>
<path d="M6363 4032 c-31 -5 -93 -77 -93 -108 0 -36 36 -83 76 -100 70 -29
154 21 154 93 0 50 -31 101 -67 109 -15 3 -32 7 -38 8 -5 1 -20 0 -32 -2z"/>
<path d="M2872 4010 c-18 -11 -40 -36 -48 -55 -12 -30 -12 -39 0 -69 33 -79
165 -96 201 -26 8 16 15 46 15 68 0 79 -98 127 -168 82z"/>
<path d="M2370 3985 l0 -35 49 0 c61 0 81 7 81 29 0 29 -22 41 -77 41 l-53 0
0 -35z"/>
<path d="M2370 3835 l0 -35 69 0 c39 0 73 5 76 10 4 6 -1 22 -9 35 -14 22 -24
25 -76 25 l-60 0 0 -35z"/>
<path d="M5564 2381 c4 -5 0 -12 -6 -14 -7 -3 -3 -6 9 -6 16 -1 21 3 17 14 -4
8 -10 15 -16 15 -5 0 -7 -4 -4 -9z"/>
<path d="M4195 2690 c3 -5 8 -10 11 -10 2 0 4 5 4 10 0 6 -5 10 -11 10 -5 0
-7 -4 -4 -10z"/>
</g>
</svg>
